<svg xmlns="http://www.w3.org/2000/svg" width="182.482" height="65.038" viewBox="0 0 182.482 65.038">
  <g id="_01_Logotipo" data-name="01 Logotipo" transform="translate(-54.662 -27.4)">
    <path id="Trazado_1169" data-name="Trazado 1169" d="M87.777,27.408h16.731c.529,0,.451-.046.451.452.008.835,0,1.662,0,2.5,0,.291.008.3.311.3h11.8c.086,0,.171.008.265,0,.14-.008.21.038.195.184-.008.1,0,.2,0,.291V42.623c0,.421-.062.4.4.4h2.615c.319,0,.319,0,.319.322v33c0,.505.086.452-.451.452h-2.576c-.3,0-.3.008-.3.3V88.734c0,.084-.008.168,0,.26.008.138-.039.207-.195.191-.086-.008-.171,0-.265,0h-11.61c-.086,0-.179.008-.265,0-.2-.031-.249.069-.249.253q.012,1.321,0,2.642c0,.368.047.352-.366.352h-33.5c-.086,0-.179-.008-.265,0-.2.031-.249-.069-.249-.253q.012-1.321,0-2.642c0-.375.047-.352-.366-.352H58.33c-.4,0-.366.031-.366-.352v-11.6c0-.505.047-.429-.436-.429H54.953c-.28,0-.28-.008-.288-.276V43.488c0-.544-.07-.459.475-.459.856-.008,1.72-.008,2.576,0,.195,0,.249-.061.249-.253-.008-1.309,0-2.619,0-3.928V31.1c0-.084.008-.168,0-.26-.016-.145.054-.2.195-.191.086.008.171,0,.265,0H70.151c.475,0,.42.038.42-.413V27.66c0-.253.008-.26.265-.26h.482C76.828,27.408,82.3,27.408,87.777,27.408Zm3.338,10.008a.936.936,0,0,0-.031.383v9.1c0,.459,0,.459.475.59l.14.046a13,13,0,0,1,7.945,6.715,12.48,12.48,0,0,1,1.245,7.091,12.852,12.852,0,0,1-.35,1.876c-.039.13-.023.207.1.268a1.757,1.757,0,0,1,.163.092q4.062,2.309,8.132,4.617a1.038,1.038,0,0,0,.335.161C114.881,54.989,105.994,39.46,91.115,37.416ZM66.268,68.351c.078-.038.117-.054.163-.077q4.19-2.378,8.389-4.763c.241-.138.241-.138.171-.429A12.786,12.786,0,0,1,78.1,51.122a13,13,0,0,1,6.046-3.66c.319-.092.319-.092.319-.383v-9.4c0-.283-.008-.3-.288-.253-.685.107-1.37.237-2.047.406a23.081,23.081,0,0,0-9.385,4.77,22.594,22.594,0,0,0-5.362,6.524A22.126,22.126,0,0,0,64.7,58.213a22.658,22.658,0,0,0,.475,6.639A20.215,20.215,0,0,0,66.268,68.351Zm3.354,5.659c8.918,11.379,26.964,11.731,36.294.023a.812.812,0,0,0-.272-.184q-4.085-2.32-8.171-4.633c-.381-.214-.28-.207-.584.069a13.136,13.136,0,0,1-12.357,3.193,12.6,12.6,0,0,1-5.922-3.239c-.3-.276-.179-.26-.514-.069q-4.085,2.309-8.171,4.633C69.816,73.864,69.692,73.895,69.622,74.009Z" transform="translate(0 0)"/>
    <g id="Grupo_79" data-name="Grupo 79" transform="translate(129.235 40.808)">
      <path id="Trazado_1170" data-name="Trazado 1170" d="M1057.151,230.108a.647.647,0,0,1-.366.054h-5.268c-.4,0-.319.015-.443-.306-.887-2.221-1.759-4.441-2.638-6.662-.031-.077-.062-.161-.093-.237a.214.214,0,0,0-.249-.168,2.224,2.224,0,0,1-.226,0H1037a2.225,2.225,0,0,1-.226,0,.21.21,0,0,0-.241.176c-.085.245-.187.482-.28.72-.809,2.052-1.626,4.1-2.436,6.149-.148.375-.054.337-.5.337h-19.976a.952.952,0,0,0-.148,0c-.171.015-.265-.038-.241-.222.008-.084,0-.168,0-.26V203c0-.544-.07-.467.467-.467h4.895c.086,0,.171.008.265,0,.171-.015.218.069.2.214-.008.1,0,.2,0,.291V225.8c0,.521-.086.459.475.467h11.354c.451,0,.374.046.529-.352q4.576-11.543,9.144-23.086c.117-.3.117-.3.443-.3h5.152c.381,0,.319-.077.474.314q3.4,8.591,6.8,17.183,1.926,4.87,3.86,9.732C1057.065,229.863,1057.1,229.978,1057.151,230.108Zm-14.661-21.946c-.031,0-.055.008-.086.008q-2.159,5.456-4.327,10.927h8.739Q1044.634,213.6,1042.49,208.162Z" transform="translate(-1012.955 -202.519)"/>
      <path id="Trazado_1171" data-name="Trazado 1171" d="M1914.032,209.325v20.506c0,.513.07.452-.452.452h-3.805c-.311,0-.311-.008-.311-.291V203.122c0-.544-.07-.467.467-.467h6.871c.436,0,.358-.038.49.337q3.257,9.338,6.521,18.684a.672.672,0,0,0,.194.383c.218-.6.428-1.187.638-1.769l6.21-17.275a.892.892,0,0,0,.039-.1c.039-.207.156-.26.366-.26,1.144.015,2.288.008,3.432.008h2.763c.3,0,.3.008.3.306v26.8c0,.528,0,.528-.56.528h-4.669c-.109,0-.155-.054-.155-.161V209.6c-.164.061-.156.191-.187.283q-2.44,6.731-4.871,13.469-.864,2.4-1.735,4.8c-.1.283-.1.291-.412.291h-4.07c-.311,0-.311,0-.412-.291q-3.222-9.235-6.451-18.477c-.039-.115-.078-.23-.125-.337C1914.094,209.317,1914.063,209.317,1914.032,209.325Z" transform="translate(-1839.697 -202.64)"/>
      <path id="Trazado_1172" data-name="Trazado 1172" d="M1599.448,215.862c.094-.123.195-.237.288-.36q4.938-6.352,9.875-12.719a.653.653,0,0,1,.584-.283c1.323.015,2.638.008,3.961.008h.4a1.631,1.631,0,0,1-.257.4q-4.447,5.846-8.9,11.693c-.272.352-.241.253.008.582q5.626,7.316,11.26,14.625c.07.092.179.168.187.306-.1.077-.218.038-.327.038-2.156,0-4.3,0-6.459.008a.609.609,0,0,1-.552-.283q-4.914-6.489-9.844-12.964c-.07-.1-.148-.191-.241-.314a.693.693,0,0,0-.047.406v12.7c0,.482.086.436-.459.444h-5c-.093,0-.132-.046-.132-.138v-27.1c0-.444-.047-.4.389-.4h4.817a2.22,2.22,0,0,0,.226,0c.132-.008.171.061.171.176v13.132C1599.393,215.839,1599.424,215.846,1599.448,215.862Z" transform="translate(-1548.583 -202.5)"/>
      <path id="Trazado_1173" data-name="Trazado 1173" d="M2324.045,216.4V202.958c0-.444-.039-.391.4-.391h5.042a.956.956,0,0,0,.148,0c.171-.015.265.031.241.222a1.442,1.442,0,0,0,0,.184v26.838c0,.421.054.4-.4.4h-5.043a.95.95,0,0,0-.147,0c-.2.023-.265-.077-.241-.26.008-.084,0-.168,0-.26Z" transform="translate(-2222.015 -202.559)"/>
    </g>
    <g id="Grupo_80" data-name="Grupo 80" transform="translate(128.647 72.431)">
      <path id="Trazado_1174" data-name="Trazado 1174" d="M2083.975,620.228v7.519c0,.414.07.406-.389.4-.195,0-.444.084-.576-.038-.147-.138-.054-.391-.054-.6-.008-2.849,0-5.7,0-8.553,0-.444-.055-.391.4-.391.374,0,.747.015,1.121-.008.226-.015.3.084.366.26.467,1.3.942,2.6,1.416,3.9.2.567.413,1.126.615,1.692.125-.015.116-.115.14-.191.638-1.776,1.268-3.545,1.906-5.322.148-.406.062-.329.49-.337.374-.008.747,0,1.121,0,.412,0,.365-.061.365.375v8.806c0,.436.047.39-.4.39h-.638c-.124,0-.179-.046-.171-.176.008-.084,0-.168,0-.26v-7.7a.455.455,0,0,0-.164.276c-.646,1.83-1.3,3.668-1.945,5.5-.117.329-.117.329-.459.329-.225,0-.451-.008-.669,0a.272.272,0,0,1-.319-.222c-.35-1-.716-1.983-1.074-2.971-.327-.9-.662-1.807-.989-2.718A.106.106,0,0,1,2083.975,620.228Z" transform="translate(-1999.075 -618.321)"/>
      <path id="Trazado_1175" data-name="Trazado 1175" d="M1884.535,618.793v1.057a.886.886,0,0,1-.373.031h-4.327c-.428,0-.373-.038-.373.375v2.236c0,.306,0,.314.326.314h3.845c.117,0,.148.054.148.161a8.349,8.349,0,0,1-.023.88,2.213,2.213,0,0,1-.809.046c-1.066.008-2.14,0-3.206.008-.28,0-.28.008-.28.283v2.749c0,.345-.039.345.342.345h4.965c.109-.008.148.046.148.153,0,.26-.008.513,0,.773,0,.13-.054.176-.179.168a2.225,2.225,0,0,0-.226,0h-6.116a2.225,2.225,0,0,0-.226,0c-.14.008-.21-.054-.195-.191a2.105,2.105,0,0,0,0-.222v-8.768c0-.452-.055-.4.389-.4h5.968A.6.6,0,0,1,1884.535,618.793Z" transform="translate(-1810.071 -618.532)"/>
      <path id="Trazado_1176" data-name="Trazado 1176" d="M1011.82,617.53c-.381-.115-.731-.23-1.089-.329a6.559,6.559,0,0,0-2.249-.253,2.781,2.781,0,0,0-.833.176,1.132,1.132,0,0,0-.77.949,1.2,1.2,0,0,0,.514,1.217,3.376,3.376,0,0,0,.763.383c.763.268,1.517.536,2.28.8a4.689,4.689,0,0,1,1.167.567,2.445,2.445,0,0,1,.4,3.652,3.738,3.738,0,0,1-2.07,1.08,8.015,8.015,0,0,1-3.222-.107c-.366-.077-.724-.176-1.089-.253-.14-.031-.218-.077-.218-.237.008-.4,0-.8,0-1.24.3.115.56.214.825.322a7.99,7.99,0,0,0,1.977.513,3.641,3.641,0,0,0,2.2-.36,1.435,1.435,0,0,0,.576-.559,1.214,1.214,0,0,0-.475-1.685,10.363,10.363,0,0,0-1.533-.659c-.568-.207-1.152-.39-1.7-.651a8.119,8.119,0,0,1-.724-.383,2.127,2.127,0,0,1-1.051-2.328,2.475,2.475,0,0,1,2.062-2.144,6.707,6.707,0,0,1,2.591-.046,11.806,11.806,0,0,1,1.354.276c.311.077.311.084.311.375Z" transform="translate(-1005.4 -615.821)"/>
      <path id="Trazado_1177" data-name="Trazado 1177" d="M1445.706,617.481c-.381-.115-.731-.237-1.089-.337a5.828,5.828,0,0,0-2.693-.184,2.531,2.531,0,0,0-.4.107,1.12,1.12,0,0,0-.771.949,1.191,1.191,0,0,0,.521,1.218,4.57,4.57,0,0,0,1.113.513c.646.222,1.292.444,1.938.658a4.685,4.685,0,0,1,1.136.544,2.446,2.446,0,0,1,.4,3.7,3.807,3.807,0,0,1-2.047,1.049,8.151,8.151,0,0,1-3.222-.107c-.35-.069-.7-.168-1.051-.237-.179-.031-.257-.1-.249-.283.016-.391.008-.773.008-1.187.444.161.84.329,1.253.459a6.015,6.015,0,0,0,2.412.375,2.987,2.987,0,0,0,1.377-.4,1.31,1.31,0,0,0,.677-.965,1.15,1.15,0,0,0-.592-1.248,7.958,7.958,0,0,0-1.362-.6c-.63-.23-1.268-.429-1.875-.712-.257-.122-.514-.253-.755-.4a2.147,2.147,0,0,1-1.051-2.328,2.475,2.475,0,0,1,2.062-2.136,6.862,6.862,0,0,1,2.591-.046c.482.069.949.176,1.424.291.164.038.249.1.241.291C1445.69,616.791,1445.706,617.121,1445.706,617.481Z" transform="translate(-1405.529 -615.764)"/>
      <path id="Trazado_1178" data-name="Trazado 1178" d="M2306.623,623.6c.451.169.848.329,1.26.467a6.016,6.016,0,0,0,2.412.375,3.091,3.091,0,0,0,1.378-.406,1.369,1.369,0,0,0,.661-.9,1.18,1.18,0,0,0-.583-1.317,8.17,8.17,0,0,0-1.323-.59c-.638-.237-1.292-.436-1.915-.727a6.51,6.51,0,0,1-.723-.383,2.146,2.146,0,0,1-1.066-2.389,2.455,2.455,0,0,1,2.023-2.091,6.479,6.479,0,0,1,2.63-.054c.483.069.949.176,1.424.291a.254.254,0,0,1,.234.3c-.016.329-.008.651-.008,1-.475-.145-.9-.306-1.354-.406a5.949,5.949,0,0,0-2.436-.123,2.774,2.774,0,0,0-.428.13,1.239,1.239,0,0,0-.234,2.136,5.087,5.087,0,0,0,.965.467c.7.245,1.408.482,2.109.727a5.136,5.136,0,0,1,1.043.482,2.451,2.451,0,0,1,.4,3.844,3.889,3.889,0,0,1-1.938.957,8.068,8.068,0,0,1-3.26-.107c-.366-.077-.723-.176-1.089-.245a.21.21,0,0,1-.2-.245C2306.631,624.432,2306.623,624.041,2306.623,623.6Z" transform="translate(-2205.343 -615.487)"/>
      <path id="Trazado_1179" data-name="Trazado 1179" d="M1219.235,618.587a.939.939,0,0,1-.218.39q-1.693,2.481-3.4,4.954a1.171,1.171,0,0,0-.218.712c.008,1.08,0,2.152.008,3.231,0,.291.023.3-.311.3-.311,0-.623-.008-.934,0-.195.008-.249-.069-.249-.253.008-1.11,0-2.228.008-3.339a1.144,1.144,0,0,0-.194-.651c-1.113-1.685-2.21-3.369-3.307-5.054a.41.41,0,0,1-.125-.291c.506,0,1.012.008,1.518,0,.163,0,.194.13.257.222.529.827,1.066,1.654,1.6,2.481.366.567.724,1.133,1.089,1.7.14-.069.187-.191.257-.291.9-1.286,1.813-2.573,2.708-3.867a.478.478,0,0,1,.482-.253C1218.526,618.6,1218.869,618.587,1219.235,618.587Z" transform="translate(-1194.348 -618.34)"/>
      <path id="Trazado_1180" data-name="Trazado 1180" d="M1646.8,618.7h4.179c.311,0,.3,0,.288.276,0,.2-.016.391,0,.59s-.062.245-.249.245c-.949-.008-1.891-.008-2.84,0-.21,0-.475-.092-.615.038-.148.145-.054.413-.054.628v7.42c0,.414.07.4-.4.4h-.825c-.257-.008-.257-.008-.264-.268V620.17c0-.4.047-.352-.358-.352h-2.949c-.443,0-.443,0-.443-.452,0-.146.008-.291,0-.444s.054-.207.218-.207c.42.008.848,0,1.268,0C1644.788,618.7,1645.8,618.7,1646.8,618.7Z" transform="translate(-1592.713 -618.454)"/>
    </g>
  </g>
</svg>
