<?xml version="1.0" encoding="utf-8"?>
<!-- Generator: Adobe Illustrator 23.0.5, SVG Export Plug-In . SVG Version: 6.00 Build 0)  -->
<svg version="1.1"
	 id="svg2" inkscape:version="0.92.4 (5da689c313, 2019-01-14)" sodipodi:docname="search1.svg" xmlns:cc="http://creativecommons.org/ns#" xmlns:dc="http://purl.org/dc/elements/1.1/" xmlns:inkscape="http://www.inkscape.org/namespaces/inkscape" xmlns:rdf="http://www.w3.org/1999/02/22-rdf-syntax-ns#" xmlns:sodipodi="http://sodipodi.sourceforge.net/DTD/sodipodi-0.dtd" xmlns:svg="http://www.w3.org/2000/svg"
	 xmlns="http://www.w3.org/2000/svg" xmlns:xlink="http://www.w3.org/1999/xlink" x="0px" y="0px" viewBox="0 0 800 800"
	 style="enable-background:new 0 0 800 800;" xml:space="preserve">
<path d="M564.9,44.2C425.4-115.9,170-115.2,32.8,62.4c-75.7,97.9-87.3,267.5-25.7,374.8c97.7,170.2,303.3,218.7,460.4,134.9
	L707.8,848c12.6,14.5,34.6,16,49.1,3.4l64.2-55.9c14.5-12.6,16-34.6,3.4-49.1L584.2,470.6c0,0,0-0.1,0-0.1
	C675.8,344.1,671.8,166.9,564.9,44.2z M523.4,317.1c-76.1,242.4-396.2,220.4-438.4-30.2c-3.1-18.2-1-47.5,4.5-65.1
	C165.6-20.7,485.7,1.4,527.8,251.9C530.9,270.1,528.9,299.5,523.4,317.1z"/>
</svg>
