<?xml version="1.0" encoding="utf-8"?>
<!-- Generator: Adobe Illustrator 23.0.5, SVG Export Plug-In . SVG Version: 6.00 Build 0)  -->
<svg version="1.1"
	 id="svg2" inkscape:version="0.92.4 (5da689c313, 2019-01-14)" sodipodi:docname="avion de papel.svg" xmlns:cc="http://creativecommons.org/ns#" xmlns:dc="http://purl.org/dc/elements/1.1/" xmlns:inkscape="http://www.inkscape.org/namespaces/inkscape" xmlns:rdf="http://www.w3.org/1999/02/22-rdf-syntax-ns#" xmlns:sodipodi="http://sodipodi.sourceforge.net/DTD/sodipodi-0.dtd" xmlns:svg="http://www.w3.org/2000/svg"
	 xmlns="http://www.w3.org/2000/svg" xmlns:xlink="http://www.w3.org/1999/xlink" x="0px" y="0px" viewBox="0 0 2457 914.1"
	 style="enable-background:new 0 0 2457 914.1;" xml:space="preserve">
<sodipodi:namedview  bordercolor="#666666" borderopacity="1" gridtolerance="10" guidetolerance="10" id="namedview4" inkscape:current-layer="svg2" inkscape:cx="188" inkscape:cy="89.5" inkscape:pageopacity="0" inkscape:pageshadow="2" inkscape:window-height="480" inkscape:window-maximized="0" inkscape:window-width="653" inkscape:window-x="147" inkscape:window-y="116" inkscape:zoom="0.92819149" objecttolerance="10" pagecolor="#ffffff" showgrid="false">
	</sodipodi:namedview>
<path d="M480.2,27.5c71.7,0,143.3,0,215,0c6.8,0,5.8-0.6,5.8,5.9c0.1,10.9,0,21.7,0,32.6c0,3.8,0.1,3.9,4,3.9c22.6,0,45.1,0,67.7,0
	c28,0,56,0,84,0c1.1,0,2.2,0.1,3.4,0c1.8-0.1,2.7,0.5,2.5,2.4c-0.1,1.3,0,2.6,0,3.8c0,50,0,100,0,150.1c0,5.5-0.8,5.2,5.1,5.2
	c11.2,0,22.4,0,33.6,0c4.1,0,4.1,0,4.1,4.2c0,0.6,0,1.3,0,1.9c0,143,0,286.1,0,429.1c0,6.6,1.1,5.9-5.8,5.9c-11,0-22.1,0-33.1,0
	c-3.9,0-3.9,0.1-3.9,3.9c0,16.9,0,33.9,0,50.8c0,33.7,0,67.4,0,101.2c0,1.1-0.1,2.2,0,3.4c0.1,1.8-0.5,2.7-2.5,2.5
	c-1.1-0.1-2.2,0-3.4,0c-49.7,0-99.5,0-149.2,0c-1.1,0-2.3,0.1-3.4,0c-2.6-0.4-3.2,0.9-3.2,3.3c0.1,11.5,0.1,23,0,34.5
	c0,4.8,0.6,4.6-4.7,4.6c-51.2,0-102.4,0-153.6,0c-92.3,0-184.6,0-276.9,0c-1.1,0-2.3-0.1-3.4,0c-2.6,0.4-3.2-0.9-3.2-3.3
	c0.1-11.5,0.1-23,0-34.5c0-4.9,0.6-4.6-4.7-4.6c-50.1,0-100.1,0-150.2,0c-0.8,0-1.6,0-2.4,0c-5.1,0-4.7,0.4-4.7-4.6
	c0-50.5,0-101,0-151.5c0-6.6,0.6-5.6-5.6-5.6c-11,0-22.1,0-33.1,0c-3.6,0-3.6-0.1-3.7-3.6c0-0.8,0-1.6,0-2.4c0-143,0-286.1,0-429.1
	c0-7.1-0.9-6,6.1-6c11-0.1,22.1-0.1,33.1,0c2.5,0,3.2-0.8,3.2-3.3c-0.1-17.1,0-34.2,0-51.3c0-33.7,0-67.4,0-101.2
	c0-1.1,0.1-2.2,0-3.4c-0.2-1.9,0.7-2.6,2.5-2.5c1.1,0.1,2.2,0,3.4,0c50.2,0,100.4,0,150.7,0c6.1,0,5.4,0.5,5.4-5.4
	c0-11.2,0-22.4,0-33.6c0-3.3,0.1-3.4,3.4-3.4c2.1,0,4.2,0,6.2,0C339.5,27.5,409.8,27.5,480.2,27.5z M523.1,158.2
	c-0.7,1.8-0.4,3.4-0.4,5c0,39.6,0,79.3,0,118.9c0,6,0,6,6.1,7.7c0.6,0.2,1.2,0.4,1.8,0.6c46.3,15,80.4,44.3,102.1,87.7
	c14.5,29.2,19.4,60.2,16,92.6c-0.9,8.3-2.4,16.4-4.5,24.5c-0.5,1.7-0.3,2.7,1.3,3.5c0.7,0.3,1.4,0.8,2.1,1.2
	c34.8,20.1,69.7,40.2,104.5,60.3c1.4,0.8,2.6,1.8,4.3,2.1C828.5,387.7,714.3,184.9,523.1,158.2z M203.8,562.2c1-0.5,1.5-0.7,2.1-1
	c35.9-20.7,71.9-41.5,107.8-62.2c3.1-1.8,3.1-1.8,2.2-5.6c-5.7-23.3-6.8-46.7-2.6-70.3c5.8-32.8,20-61.5,42.6-85.9
	c21.4-23.1,47.3-39.1,77.7-47.8c4.1-1.2,4.1-1.2,4.1-5c0-40.9,0-81.8,0-122.7c0-3.7-0.1-3.9-3.7-3.3c-8.8,1.4-17.6,3.1-26.3,5.3
	c-45.1,11.4-85.3,32.2-120.6,62.3c-28.3,24.1-51.3,52.5-68.9,85.2c-20,37.1-31.5,76.6-34.6,118.6c-2.1,29.2-0.2,58.1,6.1,86.7
	C193,532,197.6,547,203.8,562.2z M246.9,636.1c114.6,148.6,346.5,153.2,466.4,0.3c-0.9-1.2-2.3-1.7-3.5-2.4
	c-35-20.2-70-40.4-105-60.5c-4.9-2.8-3.6-2.7-7.5,0.9c-45.6,41.7-98.7,55.7-158.8,41.7c-29.3-6.8-54.5-21.5-76.1-42.3
	c-3.8-3.6-2.3-3.4-6.6-0.9c-35,20.1-70,40.3-105,60.5C249.4,634.2,247.8,634.6,246.9,636.1z"/>
<g>
	<path d="M1580.9,562.8c-1.8,1-3.3,0.7-4.7,0.7c-22.6,0-45.1,0-67.7,0c-5.2,0-4.1,0.2-5.7-4c-11.4-29-22.6-58-33.9-87
		c-0.4-1-0.8-2.1-1.2-3.1c-0.5-1.5-1.4-2.4-3.2-2.2c-0.9,0.1-1.9,0-2.9,0c-46.5,0-93.1,0-139.6,0c-1,0-1.9,0.1-2.9,0
		c-1.7-0.2-2.6,0.7-3.1,2.3c-1.1,3.2-2.4,6.3-3.6,9.4c-10.4,26.8-20.9,53.5-31.3,80.3c-1.9,4.9-0.7,4.4-6.4,4.4
		c-85.6,0-171.1,0-256.7,0c-0.6,0-1.3-0.1-1.9,0c-2.2,0.2-3.4-0.5-3.1-2.9c0.1-1.1,0-2.2,0-3.4c0-116.2,0-232.4,0-348.5
		c0-7.1-0.9-6.1,6-6.1c21,0,41.9,0,62.9,0c1.1,0,2.2,0.1,3.4,0c2.2-0.2,2.8,0.9,2.6,2.8c-0.1,1.3,0,2.6,0,3.8
		c0,99.1,0,198.2,0,297.2c0,6.8-1.1,6,6.1,6.1c48.6,0,97.2,0,145.9,0c5.8,0,4.8,0.6,6.8-4.6c39.2-100.5,78.4-201,117.5-301.5
		c1.5-3.9,1.5-3.9,5.7-3.9c22.1,0,44.1,0,66.2,0c4.9,0,4.1-1,6.1,4.1c29.1,74.8,58.2,149.6,87.4,224.4c16.5,42.4,33,84.7,49.6,127.1
		C1579.8,559.6,1580.3,561.1,1580.9,562.8z M1392.5,276.2c-0.4,0-0.7,0.1-1.1,0.1c-18.5,47.5-37,95-55.6,142.7
		c37.6,0,74.7,0,112.3,0C1429.4,371.1,1410.9,323.6,1392.5,276.2z"/>
	<path d="M1968.2,289.8c0,1.7,0,3.4,0,5.1c0,87.6,0,175.2,0,262.7c0,6.7,0.9,5.9-5.8,5.9c-16.3,0-32.6,0-48.9,0c-4,0-4-0.1-4-3.8
		c0-0.8,0-1.6,0-2.4c0-116.2,0-232.4,0-348.5c0-7.1-0.9-6.1,6-6.1c29.4,0,58.9,0,88.3,0c5.6,0,4.6-0.5,6.3,4.4
		c27.9,81.3,55.9,162.7,83.8,244c0.5,1.6,0.7,3.5,2.5,5c2.8-7.8,5.5-15.5,8.2-23.1c26.6-75.2,53.2-150.4,79.8-225.6
		c0.2-0.5,0.4-0.9,0.5-1.3c0.5-2.7,2-3.4,4.7-3.4c14.7,0.2,29.4,0.1,44.1,0.1c11.8,0,23.7,0,35.5,0c3.8,0,3.9,0.1,3.9,4
		c0,13.1,0,26.2,0,39.3c0,103.6,0,207.1,0,310.7c0,6.9,0,6.9-7.2,6.9c-18.9,0-37.7,0-56.6,0c-1.1,0-2.2,0-3.4,0c-1.4,0-2-0.7-2-2.1
		c0-1.3,0-2.6,0-3.8c0-86.3,0-172.6,0-258.9c0-1.7,0-3.4,0-5.5c-2.1,0.8-2,2.5-2.4,3.7c-20.9,58.6-41.8,117.3-62.6,175.9
		c-7.4,20.9-14.8,41.8-22.3,62.7c-1.3,3.7-1.3,3.8-5.3,3.8c-17.4,0-34.9,0-52.3,0c-4,0-4,0-5.3-3.8
		c-27.6-80.4-55.3-160.9-82.9-241.3c-0.5-1.5-1-3-1.6-4.4C1969,289.7,1968.6,289.7,1968.2,289.8z"/>
	<path d="M1666.6,377c1.2-1.6,2.5-3.1,3.7-4.7c42.3-55.3,84.6-110.7,126.9-166.1c2.1-2.7,4.1-3.7,7.5-3.7c17,0.2,33.9,0.1,50.9,0.1
		c1.5,0,3.1,0,5.1,0c-0.9,2.3-2.2,3.7-3.3,5.2c-38.1,50.9-76.2,101.8-114.4,152.7c-3.5,4.6-3.1,3.3,0.1,7.6
		c48.2,63.7,96.5,127.3,144.7,191c0.9,1.2,2.3,2.2,2.4,4c-1.3,1-2.8,0.5-4.2,0.5c-27.7,0-55.3,0-83,0.1c-3.3,0-5.2-1.1-7.1-3.7
		c-42.1-56.5-84.3-112.9-126.5-169.3c-0.9-1.3-1.9-2.5-3.1-4.1c-1.1,2-0.6,3.7-0.6,5.3c0,55.3,0,110.6,0,165.9
		c0,6.3,1.1,5.7-5.9,5.8c-20.2,0-40.3,0-60.5,0c-1.3,0-2.6,0-3.8,0c-1.2,0-1.7-0.6-1.7-1.8c0-1.1,0-2.2,0-3.4
		c0-116.8,0-233.6,0-350.5c0-5.8-0.6-5.2,5-5.2c20.6,0,41.3,0,61.9,0c1,0,1.9,0.1,2.9,0c1.7-0.1,2.2,0.8,2.2,2.3c0,1.3,0,2.6,0,3.8
		c0,54.2,0,108.3,0,162.5c0,1.7,0,3.5,0,5.2C1665.9,376.7,1666.3,376.8,1666.6,377z"/>
	<path d="M2324.1,383.2c0-57.9,0-115.7,0-173.6c0-0.6,0-1.3,0-1.9c0-5.8-0.5-5.1,5.1-5.1c21.6,0,43.2,0,64.8,0c0.6,0,1.3,0.1,1.9,0
		c2.2-0.2,3.4,0.4,3.1,2.9c-0.1,0.8,0,1.6,0,2.4c0,116.8,0,233.7,0,350.5c0,5.5,0.7,5.2-5.1,5.2c-21.6,0-43.2,0-64.8,0
		c-0.6,0-1.3-0.1-1.9,0c-2.6,0.3-3.4-1-3.1-3.4c0.1-1.1,0-2.2,0-3.4C2324.1,498.9,2324.1,441.1,2324.1,383.2z"/>
</g>
<g>
	<path d="M2096.4,640.4c0,1.7,0,3.5,0,5.2c0,31,0,62,0,93c0,5.4,0.9,5.3-5,5.2c-2.5,0-5.7,1.1-7.4-0.5c-1.9-1.8-0.7-5.1-0.7-7.8
		c-0.1-37.2,0-74.5,0-111.7c0-5.8-0.7-5.1,5.1-5.1c4.8,0,9.6,0.2,14.4-0.1c2.9-0.2,3.8,1.1,4.7,3.4c6,17,12.1,33.9,18.2,50.9
		c2.6,7.4,5.3,14.7,7.9,22.1c1.6-0.2,1.5-1.5,1.8-2.5c8.2-23.2,16.3-46.3,24.5-69.5c1.9-5.3,0.8-4.3,6.3-4.4c4.8-0.1,9.6,0,14.4,0
		c5.3,0,4.7-0.8,4.7,4.9c0,38.3,0,76.7,0,115c0,5.7,0.6,5.1-5.1,5.1c-2.7,0-5.4,0-8.2,0c-1.6,0-2.3-0.6-2.2-2.3c0.1-1.1,0-2.2,0-3.4
		c0-31.8,0-63.6,0-95.4c0-1.5,0-3.1,0-5.2c-1.6,1.2-1.7,2.5-2.1,3.6c-8.3,23.9-16.7,47.9-25,71.8c-1.5,4.3-1.5,4.3-5.9,4.3
		c-2.9,0-5.8-0.1-8.6,0c-2.3,0.1-3.3-0.6-4.1-2.9c-4.5-13-9.2-25.9-13.8-38.8c-4.2-11.8-8.5-23.6-12.7-35.5
		C2097.1,640.4,2096.7,640.4,2096.4,640.4z"/>
	<path d="M1962.3,618.9c0,4.7,0,9.2,0,13.8c-1.6,0.7-3.2,0.4-4.8,0.4c-18.5,0-37.1,0-55.6,0c-5.5,0-4.8-0.5-4.8,4.9
		c0,9.7,0,19.5,0,29.2c0,4,0,4.1,4.2,4.1c15.3,0,30.7,0,46,0c1.1,0,2.2,0,3.4,0c1.5,0,1.9,0.7,1.9,2.1c-0.2,3.8,0.3,7.7-0.3,11.5
		c-3.4,1.3-6.9,0.6-10.4,0.6c-13.7,0.1-27.5,0-41.2,0.1c-3.6,0-3.6,0.1-3.6,3.7c0,12,0,24,0,35.9c0,4.5-0.5,4.5,4.4,4.5
		c20.1,0,40.3,0,60.4,0c1.1,0,2.2,0,3.4,0c1.4-0.1,1.9,0.6,1.9,2c0,3.4-0.1,6.7,0,10.1c0,1.7-0.7,2.3-2.3,2.2c-1-0.1-1.9,0-2.9,0
		c-26.2,0-52.4,0-78.6,0c-1,0-1.9-0.1-2.9,0c-1.8,0.1-2.7-0.7-2.5-2.5c0.1-1,0-1.9,0-2.9c0-38.2,0-76.3,0-114.5c0-5.9-0.7-5.2,5-5.2
		c25.6,0,51.2,0,76.7,0C1960.5,618.7,1961.3,618.8,1962.3,618.9z"/>
	<path d="M1087.9,637.8c-4.9-1.5-9.4-3-14-4.3c-9.4-2.7-19.1-4-28.9-3.3c-3.7,0.3-7.3,0.9-10.7,2.3c-5.5,2.3-9.2,6.2-9.9,12.4
		c-0.7,6.5,1,12,6.6,15.9c3,2.1,6.3,3.7,9.8,5c9.8,3.5,19.5,7,29.3,10.4c5.3,1.9,10.4,4.1,15,7.4c18.4,12.7,15.4,36.6,5.1,47.7
		c-7.2,7.8-16.3,12-26.6,14.1c-13.9,2.9-27.7,1.4-41.4-1.4c-4.7-1-9.3-2.3-14-3.3c-1.8-0.4-2.8-1-2.8-3.1c0.1-5.2,0-10.5,0-16.2
		c3.8,1.5,7.2,2.8,10.6,4.2c8.2,3.2,16.6,5.7,25.4,6.7c9.9,1,19.5,0.3,28.3-4.7c3.1-1.8,5.7-4.1,7.4-7.3c3.5-6.7,3.2-16.8-6.1-22
		c-6.3-3.6-13-6.1-19.7-8.6c-7.3-2.7-14.8-5.1-21.8-8.5c-3.2-1.5-6.3-3.2-9.3-5c-11.6-6.9-15.3-17.6-13.5-30.4
		c2-14.7,11.3-24.3,26.5-28c11.1-2.7,22.2-2.3,33.3-0.6c5.9,0.8,11.6,2.1,17.4,3.6c4,1,4,1.1,4,4.9
		C1087.9,629.5,1087.9,633.5,1087.9,637.8z"/>
	<path d="M1521.7,637.9c-4.9-1.5-9.4-3.1-14-4.4c-11.4-3.1-22.8-4.8-34.6-2.4c-1.7,0.3-3.4,0.8-5.1,1.4c-5.6,2.3-9.2,6.2-9.9,12.4
		c-0.7,6.5,1,12,6.7,15.9c4.4,3,9.3,5,14.3,6.7c8.3,2.9,16.6,5.8,24.9,8.6c5.2,1.8,10.1,4,14.6,7.1c19.1,13,15.6,37.4,5.1,48.3
		c-7.3,7.6-16.2,11.6-26.3,13.7c-13.9,2.9-27.7,1.3-41.4-1.4c-4.5-0.9-9-2.2-13.5-3.1c-2.3-0.4-3.3-1.3-3.2-3.7
		c0.2-5.1,0.1-10.1,0.1-15.5c5.7,2.1,10.8,4.3,16.1,6c10,3.4,20.3,5.8,31,4.9c6.3-0.5,12.3-1.8,17.7-5.2c4.7-2.9,8-7,8.7-12.6
		c1-7-1.4-12.6-7.6-16.3c-5.5-3.3-11.5-5.6-17.5-7.8c-8.1-3-16.3-5.6-24.1-9.3c-3.3-1.6-6.6-3.3-9.7-5.2
		c-11.5-7-15.3-17.7-13.5-30.4c2.1-14.7,11.3-24.2,26.5-27.9c11.1-2.7,22.2-2.2,33.3-0.6c6.2,0.9,12.2,2.3,18.3,3.8
		c2.1,0.5,3.2,1.3,3.1,3.8C1521.5,628.9,1521.7,633.2,1521.7,637.9z"/>
	<path d="M2306.9,721.5c5.8,2.2,10.9,4.3,16.2,6.1c10,3.4,20.3,5.8,31,4.9c6.3-0.6,12.3-1.9,17.7-5.3c4.4-2.8,7.4-6.5,8.5-11.7
		c1.5-7.1-1.2-13.3-7.5-17.2c-5.3-3.2-11.2-5.5-17-7.7c-8.2-3.1-16.6-5.7-24.6-9.5c-3.2-1.5-6.3-3.1-9.3-5
		c-11-6.8-15.8-16.3-13.7-31.2c2.2-15.2,11.9-23.5,26-27.3c11.2-3,22.5-2.4,33.8-0.7c6.2,0.9,12.2,2.3,18.3,3.8
		c2.2,0.5,3.1,1.6,3,3.9c-0.2,4.3-0.1,8.5-0.1,13.1c-6.1-1.9-11.6-4-17.4-5.3c-10.4-2.4-20.8-3.6-31.3-1.6c-1.9,0.4-3.7,1-5.5,1.7
		c-12.1,4.6-12.2,21.9-3,27.9c3.9,2.5,8.1,4.5,12.4,6.1c9,3.2,18.1,6.3,27.1,9.5c4.7,1.6,9.2,3.7,13.4,6.3
		c20.5,12.9,17.1,38.8,5.1,50.2c-7.1,6.7-15.5,10.6-24.9,12.5c-14.1,2.9-28,1.5-41.9-1.4c-4.7-1-9.3-2.3-14-3.2
		c-2-0.4-2.6-1.3-2.6-3.2C2307,732.3,2306.9,727.2,2306.9,721.5z"/>
	<path d="M1325.2,618.7c-0.5,2.4-1.8,3.7-2.8,5.1c-14.5,21.6-29.1,43.2-43.7,64.7c-2,2.9-2.8,5.8-2.8,9.3c0.1,14.1,0,28.1,0.1,42.2
		c0,3.8,0.3,3.9-4,3.9c-4,0-8-0.1-12,0c-2.5,0.1-3.2-0.9-3.2-3.3c0.1-14.5,0-29.1,0.1-43.6c0-3.2-0.8-5.8-2.5-8.5
		c-14.3-22-28.4-44-42.5-66c-0.7-1-1.7-1.9-1.6-3.8c6.5,0,13,0.1,19.5,0c2.1,0,2.5,1.7,3.3,2.9c6.8,10.8,13.7,21.6,20.5,32.4
		c4.7,7.4,9.3,14.8,14,22.2c1.8-0.9,2.4-2.5,3.3-3.8c11.6-16.8,23.3-33.6,34.8-50.5c1.6-2.4,3.2-3.5,6.2-3.3
		C1316.1,618.9,1320.5,618.7,1325.2,618.7z"/>
	<path d="M1700.5,618.7c17.9,0,35.8,0,53.7,0c4,0,3.8,0,3.7,3.6c0,2.6-0.2,5.1,0,7.7c0.2,2.6-0.8,3.2-3.2,3.2
		c-12.2-0.1-24.3-0.1-36.5,0c-2.7,0-6.1-1.2-7.9,0.5c-1.9,1.9-0.7,5.4-0.7,8.2c0,32.3,0,64.6,0,96.9c0,5.4,0.9,5.2-5.1,5.2
		c-3.5,0-7,0-10.6,0c-3.3-0.1-3.3-0.1-3.4-3.5c0-1,0-1.9,0-2.9c0-33.2,0-66.5,0-99.7c0-5.2,0.6-4.6-4.6-4.6c-12.6,0-25.3,0-37.9,0
		c-5.7,0-5.7,0-5.7-5.9c0-1.9,0.1-3.8,0-5.8c-0.2-2.1,0.7-2.7,2.8-2.7c5.4,0.1,10.9,0,16.3,0
		C1674.6,618.7,1687.6,618.7,1700.5,618.7z"/>
</g>
</svg>
