<svg xmlns="http://www.w3.org/2000/svg" width="305.522" height="155.544" viewBox="0 0 305.522 155.544">
  <path id="path12" d="M51.07,176.25A14.134,14.134,0,0,1,52,173.5c.762-1.772.867-1.687.93.75.039,1.512-.38,2.75-.93,2.75s-.968-.337-.93-.75Zm2.93-9.7a17.453,17.453,0,0,1,1.161-3c1.62-3.555,2.962-3.2,1.69.453-.575,1.65-1.452,3-1.948,3S54,166.8,54,166.547ZM61,154c1.175-1.65,2.586-3,3.136-3s.039,1.35-1.136,3-2.586,3-3.136,3-.039-1.35,1.136-3Zm7-6.651c0-.55,1.125-2.057,2.5-3.349s2.5-1.9,2.5-1.349-1.125,2.057-2.5,3.349S68,147.9,68,147.349Zm11.365-9.932c1.576-1.386,3.144-2.241,3.485-1.9.7.7-3.817,4.443-5.35,4.429C76.95,139.941,77.789,138.8,79.365,137.417Zm137.87-3.125c-1.246-.239-2.053-.778-1.794-1.2.633-1.024,6.559-.1,6.559,1.018,0,.908-.811.939-4.765.179Zm11.527,0a10.925,10.925,0,0,1,4,.02c.956.25-.062.446-2.262.435s-2.982-.216-1.738-.455ZM239.5,134c.34-.55,2.054-.993,3.809-.985,2.428.012,2.832.247,1.691.985C243.017,135.282,238.708,135.282,239.5,134ZM87,133.161c0-.727,4.271-3.161,5.547-3.161,1.439,0,.074,1.852-2.094,2.839C87.416,134.223,87,134.262,87,133.161Zm118.75-.85c-.962-.252-1.75-.922-1.75-1.491s.712-.761,1.582-.427a10.138,10.138,0,0,0,3,.607c.78,0,1.418.45,1.418,1C210,133.027,208.82,133.113,205.75,132.311Zm45.25-.2a1.2,1.2,0,0,1,1.25-1.122,22.038,22.038,0,0,0,3.75-.636c1.747-.435,2.2-.3,1.5.443C255.977,132.415,251,133.422,251,132.108Zm-56.9-3.193c-1.317-.527-2.158-1.2-1.868-1.485.794-.794,5.763.654,5.763,1.679C198,130.2,197.212,130.158,194.1,128.915ZM98,128.1c0-.5,1.35-1.373,3-1.948,3.649-1.272,4.008.07.453,1.69C98.387,129.236,98,129.265,98,128.1Zm164,.428c0-.261,1.35-1.172,3-2.026s3-1.162,3-.686-1.146,1.387-2.547,2.026c-2.79,1.271-3.453,1.4-3.453.686Zm-79.75-3.188c-.687-.277-1.25-.854-1.25-1.282,0-1.013,4.864-.084,5.574,1.064C187.149,126.05,184.363,126.191,182.25,125.338ZM109.5,124.2a10.076,10.076,0,0,1,4-1.758c2.094-.489,2.7-.38,2,.358a10.076,10.076,0,0,1-4,1.758C109.406,125.047,108.8,124.939,109.5,124.2ZM170,122c-1.173-.758-.914-.973,1.191-.985,1.48-.008,2.969.435,3.309.985C175.289,123.277,171.976,123.277,170,122Zm103.031.25c.046-1.091,4.969-4.511,4.969-3.452,0,1-3.3,4.2-4.329,4.2a.681.681,0,0,1-.64-.75ZM121.5,121c.34-.55,2.054-.993,3.809-.985,2.428.012,2.832.247,1.691.985C125.017,122.282,120.708,122.282,121.5,121Zm11.5-1.025c0-.536,1.65-.975,3.667-.975,4.286,0,4.141.464-.417,1.331C134.383,120.687,133,120.535,133,119.975ZM157,120c0-1.274,4.029-1.274,6,0,1.116.721.539.973-2.25.985C158.688,120.993,157,120.55,157,120Zm-12-1c0-1.274,4.029-1.274,6,0,1.116.721.539.973-2.25.985C146.688,119.993,145,119.55,145,119Zm138-6.5c1.292-1.375,2.8-2.5,3.349-2.5s-.057,1.125-1.349,2.5-2.8,2.5-3.349,2.5S281.708,113.875,283,112.5Zm4.637-8.2c-.3-1.542-.842-8.055-1.206-14.474l-.661-11.672-8.135-2.173c-4.474-1.2-10.972-2.94-14.44-3.878S256.8,70,256.7,69.51c-.237-1.085,98.166-47.982,98.978-47.17.689.689-13.632,66.782-14.741,68.031-.429.483-7.005-.587-14.777-2.4l-14-3.275L301.008,95.6c-6.129,6-11.521,11.041-11.984,11.207s-1.087-.958-1.386-2.5Zm17.647-21.169c-2.631-.751-4.96-1.842-5.176-2.424-.334-.9-6.894,14.758-8.71,20.79-.331,1.1,3.734-2.275,9.034-7.5l9.636-9.5Zm15.964-27.056C334.036,43.184,343.825,33.1,343,33.668s-13.731,10.8-28.68,22.729c-26.469,21.128-27.169,21.78-26.776,24.9.222,1.762.688,7.229,1.036,12.148l.632,8.945L293.6,90.955,298,79.52ZM340.02,88.75c.011-.137,3.112-14.2,6.891-31.25s6.766-31.116,6.639-31.258-12.057,11.707-26.51,26.331-25.887,26.953-25.409,27.4c1.533,1.427,38.3,9.836,38.389,8.779Zm7.48-60.936c1.32-1.218-6.956,2.605-49.963,23.086-19.78,9.419-36.333,17.5-36.786,17.949s5.151,2.37,12.453,4.26l13.276,3.437,30.01-23.9C333,39.494,346.95,28.322,347.5,27.814Z" transform="translate(-50.567 -21.956)" fill="#202020" stroke="#202020" stroke-linecap="square" stroke-linejoin="round" stroke-width="1"/>
</svg>
