<svg xmlns="http://www.w3.org/2000/svg" width="43.398" height="51.31" viewBox="0 0 43.398 51.31">
  <g id="Grupo_101" data-name="Grupo 101" transform="translate(-366.586 -314.096)">
    <g id="Grupo_100" data-name="Grupo 100">
      <g id="Grupo_99" data-name="Grupo 99">
        <g id="Grupo_98" data-name="Grupo 98">
          <g id="Grupo_86" data-name="Grupo 86" transform="translate(375.632 316.271) rotate(9)">
            <path id="Trazado_1201" data-name="Trazado 1201" d="M7.03,42.113a1.054,1.054,0,0,1-1.037-.9L.027,5.223a1.9,1.9,0,0,1,.318-1.41,1.7,1.7,0,0,1,1.116-.7l1.168-.195a1,1,0,0,1,.64.111l0,0A2.344,2.344,0,0,1,4.456,4.738a1.712,1.712,0,0,0,.628,1.077A1.379,1.379,0,0,0,6.168,6.1L17.582,4.21a.985.985,0,0,0,.652-.433,1.21,1.21,0,0,0,.175-.874l-.075-.465a2.357,2.357,0,0,1,.572-2,1,1,0,0,1,.564-.314l.012,0,.556-.091a2.2,2.2,0,0,1,1.728.445,2.473,2.473,0,0,1,.922,1.561h0l5.876,35.44a1.048,1.048,0,0,1-.8,1.216l-.028,0L7.173,42.1H7.161A.771.771,0,0,1,7.03,42.113ZM2.752,4.079l-1.1.183a.548.548,0,0,0-.354.226.718.718,0,0,0-.115.536L7.134,40.917,27.386,37.56,21.53,2.224h0A1.3,1.3,0,0,0,21.05,1.4a1.048,1.048,0,0,0-.818-.215l-.489.079a1.176,1.176,0,0,0-.25.965V2.24l.075.469a2.412,2.412,0,0,1-.354,1.712,2.136,2.136,0,0,1-1.438.945L6.363,7.257a2.56,2.56,0,0,1-1.994-.516A2.87,2.87,0,0,1,3.3,4.925V4.917A1.188,1.188,0,0,0,2.752,4.079Z" transform="translate(0 0)" fill="#fff"/>
          </g>
          <g id="Grupo_87" data-name="Grupo 87" transform="translate(373.901 314.096) rotate(9)">
            <path id="Trazado_1202" data-name="Trazado 1202" d="M9.378,46.763A3.416,3.416,0,0,1,6.1,43.831L.05,7.343a3.421,3.421,0,0,1,1.9-3.73A3.009,3.009,0,0,1,2.7,3.386L22.861.041a3.035,3.035,0,0,1,.783-.028,3.42,3.42,0,0,1,3,2.92l6.046,36.489a3.377,3.377,0,0,1-2.65,3.961L9.875,46.727A3.479,3.479,0,0,1,9.378,46.763ZM23.362,1.177a2.035,2.035,0,0,0-.31.024L2.887,4.542a1.87,1.87,0,0,0-.461.139,2.257,2.257,0,0,0-1.22,2.471L7.253,43.641a2.239,2.239,0,0,0,2.121,1.951,2.035,2.035,0,0,0,.31-.024l20.165-3.341a2.2,2.2,0,0,0,1.684-2.61L25.487,3.128a2.245,2.245,0,0,0-1.947-1.943h0A1.258,1.258,0,0,0,23.362,1.177Z" transform="translate(0 0)" fill="#fff"/>
          </g>
          <g id="Grupo_88" data-name="Grupo 88" transform="translate(380.437 319.672) rotate(9)">
            <path id="Trazado_1203" data-name="Trazado 1203" d="M.279,1.336,8.324,0a.327.327,0,0,1,.381.274h0A.327.327,0,0,1,8.431.66L.386,2A.327.327,0,0,1,0,1.721H0A.333.333,0,0,1,.279,1.336Z" transform="translate(0 0)" fill="#fff"/>
          </g>
          <g id="Grupo_89" data-name="Grupo 89" transform="translate(390.186 320.924) rotate(9)">
            <circle id="Elipse_14" data-name="Elipse 14" cx="0.294" cy="0.294" r="0.294" fill="#fff"/>
          </g>
          <g id="Grupo_90" data-name="Grupo 90" transform="translate(401.241 322.729) rotate(9)">
            <path id="Trazado_1204" data-name="Trazado 1204" d="M3.844,13.445a.522.522,0,0,1-.262-.072.531.531,0,0,1-.195-.723A8.548,8.548,0,0,0,.264.987.529.529,0,1,1,.793.07,9.53,9.53,0,0,1,5.258,5.9,9.517,9.517,0,0,1,4.3,13.175.512.512,0,0,1,3.844,13.445Z" fill="#fff"/>
          </g>
          <g id="Grupo_91" data-name="Grupo 91" transform="translate(401.89 318.628) rotate(9)">
            <path id="Trazado_1205" data-name="Trazado 1205" d="M5.75,20.572a.521.521,0,0,1-.262-.072.531.531,0,0,1-.195-.723A13.771,13.771,0,0,0,.264.987.529.529,0,1,1,.793.07,14.7,14.7,0,0,1,5.2,3.963a14.787,14.787,0,0,1,2.487,5.1,14.816,14.816,0,0,1,.393,5.665,14.735,14.735,0,0,1-1.875,5.574A.522.522,0,0,1,5.75,20.572Z" fill="#fff"/>
          </g>
        </g>
      </g>
    </g>
  </g>
</svg>
