<svg xmlns="http://www.w3.org/2000/svg" width="43.398" height="51.31" viewBox="0 0 43.398 51.31">
  <g id="Grupo_92" data-name="Grupo 92" transform="translate(1987.585 -3074.064) rotate(9)">
    <g id="telefono_Mesa_de_trabajo_1" data-name="telefono_Mesa de trabajo 1" transform="translate(-1475 3346)">
      <g id="Grupo_86" data-name="Grupo 86" transform="translate(2.05 1.877)">
        <path id="Trazado_1201" data-name="Trazado 1201" d="M82.862,104.338a1.054,1.054,0,0,1-1.037-.9L75.858,67.449a1.9,1.9,0,0,1,.318-1.41,1.7,1.7,0,0,1,1.116-.7l1.168-.195a1,1,0,0,1,.64.111l0,0a2.344,2.344,0,0,1,1.184,1.708,1.712,1.712,0,0,0,.628,1.077A1.379,1.379,0,0,0,82,68.327l11.413-1.891A.985.985,0,0,0,94.065,66a1.21,1.21,0,0,0,.175-.874l-.075-.465a2.357,2.357,0,0,1,.572-2,1,1,0,0,1,.564-.314l.012,0,.556-.091A2.2,2.2,0,0,1,97.6,62.7a2.473,2.473,0,0,1,.922,1.561h0l5.876,35.44a1.048,1.048,0,0,1-.8,1.216l-.028,0L83.005,104.33h-.012A.771.771,0,0,1,82.862,104.338ZM78.584,66.3l-1.1.183a.548.548,0,0,0-.354.226.718.718,0,0,0-.115.536l5.951,35.893,20.252-3.357L97.362,64.449h0a1.3,1.3,0,0,0-.481-.822,1.048,1.048,0,0,0-.818-.215l-.489.079a1.176,1.176,0,0,0-.25.965v.008l.075.469a2.412,2.412,0,0,1-.354,1.712,2.136,2.136,0,0,1-1.438.945L82.195,69.483a2.56,2.56,0,0,1-1.994-.516,2.87,2.87,0,0,1-1.069-1.815v-.008A1.188,1.188,0,0,0,78.584,66.3Z" transform="translate(-75.832 -62.226)"/>
      </g>
      <g id="Grupo_87" data-name="Grupo 87" transform="translate(0 0)">
        <path id="Trazado_1202" data-name="Trazado 1202" d="M33.608,61.731A3.416,3.416,0,0,1,30.327,58.8L24.281,22.31a3.421,3.421,0,0,1,1.9-3.73,3.009,3.009,0,0,1,.747-.226l20.165-3.345a3.035,3.035,0,0,1,.783-.028,3.42,3.42,0,0,1,3,2.92l6.046,36.489a3.377,3.377,0,0,1-2.65,3.961L34.1,61.695A3.48,3.48,0,0,1,33.608,61.731ZM47.592,16.145a2.035,2.035,0,0,0-.31.024L27.117,19.51a1.87,1.87,0,0,0-.461.139,2.257,2.257,0,0,0-1.22,2.471l6.046,36.489A2.239,2.239,0,0,0,33.6,60.559a2.035,2.035,0,0,0,.31-.024l20.165-3.341a2.2,2.2,0,0,0,1.684-2.61L49.717,18.1a2.245,2.245,0,0,0-1.947-1.943h0A1.258,1.258,0,0,0,47.592,16.145Z" transform="translate(-24.23 -14.968)"/>
      </g>
      <g id="Grupo_88" data-name="Grupo 88" transform="translate(7.327 4.485)">
        <path id="Trazado_1203" data-name="Trazado 1203" d="M208.953,129.21,217,127.879a.327.327,0,0,1,.381.274h0a.327.327,0,0,1-.274.381l-8.045,1.335a.327.327,0,0,1-.381-.274h0A.333.333,0,0,1,208.953,129.21Z" transform="translate(-208.674 -127.874)"/>
      </g>
      <g id="Grupo_89" data-name="Grupo 89" transform="translate(17.153 4.196)">
        <circle id="Elipse_14" data-name="Elipse 14" cx="0.294" cy="0.294" r="0.294"/>
      </g>
      <g id="Grupo_90" data-name="Grupo 90" transform="translate(28.353 4.25)">
        <path id="Trazado_1204" data-name="Trazado 1204" d="M741.792,135.393a.522.522,0,0,1-.262-.072.531.531,0,0,1-.195-.723,8.548,8.548,0,0,0-3.122-11.664.529.529,0,1,1,.528-.918,9.6,9.6,0,0,1,3.5,13.106A.512.512,0,0,1,741.792,135.393Z" transform="translate(-737.948 -121.948)"/>
      </g>
      <g id="Grupo_91" data-name="Grupo 91" transform="translate(28.353 0.099)">
        <path id="Trazado_1205" data-name="Trazado 1205" d="M743.7,38.02a.521.521,0,0,1-.262-.072.531.531,0,0,1-.195-.723,13.771,13.771,0,0,0-5.029-18.791.529.529,0,1,1,.528-.918,14.805,14.805,0,0,1,5.415,20.237A.522.522,0,0,1,743.7,38.02Z" transform="translate(-737.948 -17.448)"/>
      </g>
    </g>
  </g>
</svg>
