<svg xmlns="http://www.w3.org/2000/svg" width="70.193" height="70.174" viewBox="0 0 70.193 70.174">
  <path id="Trazado_1187" data-name="Trazado 1187" d="M68.66,0H12.532A7.031,7.031,0,0,0,5.5,7.031V63.144a7.031,7.031,0,0,0,7.032,7.031H68.66a7.031,7.031,0,0,0,7.032-7.031V7.031A7.031,7.031,0,0,0,68.659,0ZM50.342,36.578v.082H43.235V52.6a2.524,2.524,0,0,1-2.524,2.524H37.6a2.525,2.525,0,0,1-2.524-2.493q-.088-7.982-.175-15.972H31.037v-.045a2.957,2.957,0,0,1,0-5.911v-.046h3.792q-.038-3.45-.077-6.9A8.8,8.8,0,0,1,37.5,17.266l.042-.039a8.09,8.09,0,0,1,5.52-2.176h4.852c.016,0,.028.008.044.009.032,0,.061-.009.094-.009a3.5,3.5,0,0,1,3.618,3.37,3.5,3.5,0,0,1-3.618,3.37h-.037c-.044,0-.082.026-.126.027l-4.475.068-.092,8.772h7.108v.1a2.926,2.926,0,0,1-.09,5.821Z" transform="translate(-5.5)"/>
</svg>
