<svg xmlns="http://www.w3.org/2000/svg" width="56.193" height="56.178" viewBox="0 0 56.193 56.178">
  <path id="Trazado_1187" data-name="Trazado 1187" d="M56.063,0H11.129A5.628,5.628,0,0,0,5.5,5.628V50.55a5.629,5.629,0,0,0,5.63,5.628H56.063a5.629,5.629,0,0,0,5.63-5.629V5.628A5.629,5.629,0,0,0,56.062,0ZM41.4,29.283v.065H35.708V42.109a2.021,2.021,0,0,1-2.021,2.02H31.2a2.021,2.021,0,0,1-2.021-2q-.07-6.39-.14-12.786H25.944v-.036a2.367,2.367,0,0,1,0-4.732v-.037h3.036q-.03-2.762-.062-5.524a7.042,7.042,0,0,1,2.2-5.2l.034-.032a6.476,6.476,0,0,1,4.419-1.742h3.884c.013,0,.022.006.035.007s.049-.007.075-.007a2.8,2.8,0,0,1,2.9,2.7,2.8,2.8,0,0,1-2.9,2.7h-.029c-.035,0-.065.021-.1.022l-3.582.055-.074,7.022h5.69v.079a2.342,2.342,0,0,1-.072,4.66Z" transform="translate(-5.5)" fill="#fff"/>
</svg>
