<svg xmlns="http://www.w3.org/2000/svg" width="88.071" height="83.606" viewBox="0 0 88.071 83.606">
  <path id="Trazado_1218" data-name="Trazado 1218" d="M84.748,0H14.323A8.608,8.608,0,0,0,5.5,8.376V75.23a8.608,8.608,0,0,0,8.824,8.376H84.748a8.608,8.608,0,0,0,8.824-8.377V8.376A8.608,8.608,0,0,0,84.747,0ZM61.763,43.58v.1H52.846V62.668a3.09,3.09,0,0,1-3.167,3.007H45.773a3.094,3.094,0,0,1-3.167-2.97q-.11-9.51-.22-19.029H37.541v-.053a3.522,3.522,0,1,1,0-7.043v-.054H42.3q-.047-4.11-.1-8.221a10.232,10.232,0,0,1,3.451-7.734l.053-.047a10.451,10.451,0,0,1,6.926-2.593H58.72c.02,0,.035.009.055.01.04,0,.077-.01.118-.01a4.3,4.3,0,0,1,4.539,4.015,4.3,4.3,0,0,1-4.539,4.015h-.046c-.055.005-.1.031-.159.032l-5.615.082-.116,10.451h8.918v.118a3.472,3.472,0,0,1-.113,6.935Z" transform="translate(-5.5)"/>
</svg>
