<svg xmlns="http://www.w3.org/2000/svg" width="48.7" height="47.235" viewBox="0 0 48.7 47.235">
  <g id="legAL" transform="translate(-74.759 -100.21)">
    <path id="Trazado_1212" data-name="Trazado 1212" d="M780.934,101.059a6.147,6.147,0,0,1,2.365.535,5.784,5.784,0,0,1,2.255,1.651,1.408,1.408,0,0,1,.392,1.271c-.161.371-.765.6-1.577.6a6.147,6.147,0,0,1-2.365-.535,5.785,5.785,0,0,1-2.255-1.651,1.41,1.41,0,0,1-.392-1.271c.161-.371.765-.6,1.577-.6m0-.849a2.4,2.4,0,0,0-2.357,1.113c-.544,1.256.839,3.065,3.089,4.04a6.937,6.937,0,0,0,2.7.605,2.4,2.4,0,0,0,2.357-1.113c.544-1.256-.839-3.065-3.089-4.04A6.936,6.936,0,0,0,780.934,100.21Z" transform="translate(-663.386 0)"/>
    <path id="Trazado_1213" data-name="Trazado 1213" d="M763.089,172.5c-.536,1.236.433,3.044,2.63,4s4.137.75,4.675-.486" transform="translate(-648.751 -68.196)" fill="none" stroke="#000" stroke-linecap="round" stroke-linejoin="round" stroke-width="1"/>
    <path id="Trazado_1214" data-name="Trazado 1214" d="M509.754,101.059a6.145,6.145,0,0,1,2.365.535,5.8,5.8,0,0,1,2.208,1.592,1.555,1.555,0,0,1,.458,1.279l-.01.031-16.309,37.63-5.482,3.69-1.107-6.549,16.309-37.628.015-.028a1.8,1.8,0,0,1,1.553-.553m0-.849a2.5,2.5,0,0,0-2.3.99h-.007L491,139.159l1.368,8.1,6.78-4.565L515.6,104.728h-.006c.4-1.246-.963-2.968-3.137-3.911a6.935,6.935,0,0,0-2.7-.605Z" transform="translate(-392.206)"/>
    <path id="Trazado_1215" data-name="Trazado 1215" d="M602.664,197.04l2.142.945-7.225,16.377-1.071-.473.552-2.616.473-2.608Z" transform="translate(-491.741 -91.347)" fill="none" stroke="#000" stroke-linecap="round" stroke-linejoin="round" stroke-width="1"/>
    <path id="Trazado_1216" data-name="Trazado 1216" d="M98.822,523.624c-4.6.006-7.985-.176-8.041-.736-.062-.644,4.319-1.424,4.247-1.982-.113-.868-10.772.481-11.156-1.076-.435-1.763,12.742-5.55,12.345-7.645-.48-2.543-20.347.366-20.953-2.209-.326-1.384,4.916-4.364,22.482-10.476" transform="translate(0 -376.679)" fill="none" stroke="#000" stroke-linecap="round" stroke-linejoin="bevel" stroke-width="1"/>
  </g>
</svg>
