<svg xmlns="http://www.w3.org/2000/svg" width="70.193" height="70.174" viewBox="0 0 70.193 70.174">
  <path id="linkedin_2_" data-name="linkedin(2)" d="M63.818,0H6.356A6.358,6.358,0,0,0,0,6.356v57.48a6.354,6.354,0,0,0,6.356,6.338h57.48a6.358,6.358,0,0,0,6.356-6.356V6.356A6.385,6.385,0,0,0,63.818,0Zm-42.1,60.585a1.85,1.85,0,0,1-1.855,1.855H12a1.85,1.85,0,0,1-1.855-1.855V27.629A1.85,1.85,0,0,1,12,25.773h7.862a1.85,1.85,0,0,1,1.855,1.855ZM15.927,22.669a7.471,7.471,0,1,1,5.288-2.188,7.477,7.477,0,0,1-5.288,2.188ZM62.808,60.75a1.686,1.686,0,0,1-1.69,1.69H52.686A1.686,1.686,0,0,1,51,60.75V45.283c0-2.315.68-10.1-6.025-10.1-5.2,0-6.264,5.346-6.466,7.734V60.75a1.686,1.686,0,0,1-1.69,1.69H28.658a1.686,1.686,0,0,1-1.69-1.69V27.482a1.686,1.686,0,0,1,1.69-1.69h8.156a1.686,1.686,0,0,1,1.69,1.69v2.884c1.929-2.9,4.795-5.125,10.894-5.125,13.521,0,13.429,12.62,13.429,19.564Z"/>
</svg>
