<svg xmlns="http://www.w3.org/2000/svg" width="55.821" height="55.807" viewBox="0 0 55.821 55.807">
  <path id="linkedin_2_" data-name="linkedin(2)" d="M50.752,0H5.055A5.056,5.056,0,0,0,0,5.055V50.767a5.053,5.053,0,0,0,5.055,5.04H50.767a5.056,5.056,0,0,0,5.055-5.055V5.055A5.078,5.078,0,0,0,50.752,0ZM17.268,48.181a1.471,1.471,0,0,1-1.476,1.476H9.54a1.471,1.471,0,0,1-1.476-1.476V21.972A1.471,1.471,0,0,1,9.54,20.5h6.253a1.471,1.471,0,0,1,1.476,1.476Zm-4.6-30.153a5.942,5.942,0,1,1,4.206-1.74,5.946,5.946,0,0,1-4.206,1.74ZM49.949,48.312A1.341,1.341,0,0,1,48.6,49.656H41.9a1.341,1.341,0,0,1-1.344-1.344v-12.3c0-1.841.541-8.035-4.792-8.035-4.134,0-4.982,4.251-5.142,6.15V48.312a1.341,1.341,0,0,1-1.344,1.344H22.79a1.341,1.341,0,0,1-1.344-1.344V21.855a1.341,1.341,0,0,1,1.344-1.344h6.486a1.341,1.341,0,0,1,1.344,1.344v2.294c1.534-2.308,3.813-4.076,8.663-4.076,10.752,0,10.679,10.036,10.679,15.559Z" fill="#fff"/>
</svg>
