<svg xmlns="http://www.w3.org/2000/svg" width="89.019" height="83.239" viewBox="0 0 89.019 83.239">
  <path id="linkedin_2_" data-name="linkedin(2)" d="M80.934,0H8.061A7.815,7.815,0,0,0,0,7.539V75.721a7.813,7.813,0,0,0,8.061,7.518h72.9A7.816,7.816,0,0,0,89.019,75.7V7.539A7.851,7.851,0,0,0,80.934,0Zm-53.4,71.865a2.124,2.124,0,0,1-.687,1.558,2.431,2.431,0,0,1-1.666.643H15.213a2.431,2.431,0,0,1-1.666-.643,2.124,2.124,0,0,1-.687-1.558V32.773a2.124,2.124,0,0,1,.687-1.558,2.431,2.431,0,0,1,1.666-.643h9.971a2.431,2.431,0,0,1,1.666.643,2.124,2.124,0,0,1,.687,1.558ZM20.2,26.889c-5.237,0-9.482-3.971-9.482-8.869S14.962,9.152,20.2,9.152s9.482,3.971,9.482,8.869a8.581,8.581,0,0,1-2.775,6.273,9.818,9.818,0,0,1-6.707,2.6ZM79.653,72.061a1.937,1.937,0,0,1-.626,1.419,2.216,2.216,0,0,1-1.517.586H66.816A2.216,2.216,0,0,1,65.3,73.48a1.937,1.937,0,0,1-.626-1.419V53.713c0-2.746.862-11.985-7.641-11.985-6.593,0-7.944,6.341-8.2,9.174V72.061A1.937,1.937,0,0,1,48.2,73.48a2.216,2.216,0,0,1-1.517.586H36.344a2.216,2.216,0,0,1-1.517-.586,1.937,1.937,0,0,1-.626-1.419V32.6a1.937,1.937,0,0,1,.626-1.419,2.216,2.216,0,0,1,1.517-.586H46.688a2.216,2.216,0,0,1,1.517.586,1.937,1.937,0,0,1,.626,1.419v3.421c2.446-3.443,6.081-6.08,13.815-6.08,17.147,0,17.03,14.97,17.03,23.207Z"/>
</svg>
