<?xml version="1.0" encoding="utf-8"?>
<!-- Generator: Adobe Illustrator 23.0.5, SVG Export Plug-In . SVG Version: 6.00 Build 0)  -->
<svg version="1.1" id="Capa_1" xmlns="http://www.w3.org/2000/svg" xmlns:xlink="http://www.w3.org/1999/xlink" x="0px" y="0px"
	 viewBox="0 0 1158.4 147.4" style="enable-background:new 0 0 1158.4 147.4;" xml:space="preserve">
<style type="text/css">
	.st0{fill:#497388;}
	.st1{fill:#615F61;}
	.st2{fill:#636163;}
</style>
<title>etiqueta-13</title>
<path class="st0" d="M1060.9,147.4c-3.4,0-5.2-0.1-7.6-0.1c-351.1,0.1-702.2,0.1-1053.3,0.1V67.1c336.4,0,672.9,0,1009.4-0.1
	c5.3,0-1.2,0,7-0.1"/>
<path class="st1" d="M1058.4,67c13.3,24,27.9,50.2,41.5,74.4l2.3,4.2c0.5,0.6,0.8,1.2,1.1,1.9c-7,0-14.3-0.1-21.1,0h-2.1
	c-13.8-24.8-31.2-55.7-45.1-80.5c4.6,0.1,0.6,0.1,3.8,0"/>
<path class="st2" d="M1090.5,67c14.1,25.4,29.5,53.2,43.7,78.6c0.2,0.6,0.5,1.2,0.7,1.8h-13.3c-1.8,0-0.3,0-2.1,0
	c-14.2-25.6-30.5-54.9-44.7-80.5"/>
<path class="st2" d="M1104.7,67c0.7,1.4,1.7,3.2,2.4,4.5c12.9,23.4,25.9,46.8,38.8,70.2c0.8,1.6,1.8,3.2,3,4.5h9.6l-44-79.4"/>
</svg>
