<svg id="Capa_1" data-name="Capa 1" xmlns="http://www.w3.org/2000/svg" xmlns:xlink="http://www.w3.org/1999/xlink" viewBox="0 0 584.36 592.18"><defs><style>.cls-1{fill:url(#Degradado_sin_nombre_22);}.cls-2{fill:url(#Degradado_sin_nombre_22-2);}</style><linearGradient id="Degradado_sin_nombre_22" y1="300" x2="584.36" y2="300" gradientUnits="userSpaceOnUse"><stop offset="0" stop-color="#cbcbcb" stop-opacity="0.6"/><stop offset="1" stop-color="#c4c4c3" stop-opacity="0.6"/></linearGradient><linearGradient id="Degradado_sin_nombre_22-2" x1="179.46" x2="404.9" xlink:href="#Degradado_sin_nombre_22"/></defs><title>ikMesa de trabajo 2 copia</title><path class="cls-1" d="M292.18,7.82C130.81,7.82,0,138.63,0,300S130.81,592.18,292.18,592.18,584.36,461.37,584.36,300,453.54,7.82,292.18,7.82Zm0,543.11C153.59,550.93,41.25,438.59,41.25,300S153.59,49.07,292.18,49.07,543.11,161.41,543.11,300,430.77,550.93,292.18,550.93Z"/><path class="cls-2" d="M287.84,275,203,364.53l-23.58-22.2,99.11-102.76a13.37,13.37,0,0,1,18.9-.37L404.9,342.33l-25,22.2Z"/></svg>