<svg id="Capa_1" data-name="Capa 1" xmlns="http://www.w3.org/2000/svg" xmlns:xlink="http://www.w3.org/1999/xlink" viewBox="0 0 630.64 600"><defs><style>.cls-1{fill:url(#Degradado_sin_nombre_42);}.cls-2{fill:url(#Degradado_sin_nombre_42-2);}</style><linearGradient id="Degradado_sin_nombre_42" x1="24.11" y1="300" x2="608.46" y2="300" gradientUnits="userSpaceOnUse"><stop offset="0.03" stop-color="#666" stop-opacity="0.6"/><stop offset="1" stop-color="#666" stop-opacity="0.6"/></linearGradient><linearGradient id="Degradado_sin_nombre_42-2" x1="203.57" x2="429.01" xlink:href="#Degradado_sin_nombre_42"/></defs><title>ikMesa de trabajo 2</title><path class="cls-1" d="M316.29,7.82C154.92,7.82,24.11,138.63,24.11,300S154.92,592.18,316.29,592.18,608.46,461.37,608.46,300,477.65,7.82,316.29,7.82Zm0,543.11C177.7,550.93,65.35,438.59,65.35,300S177.7,49.07,316.29,49.07,567.22,161.41,567.22,300,454.87,550.93,316.29,550.93Z"/><path class="cls-2" d="M312,275l-84.8,89.49-23.58-22.2,99.11-102.76a13.37,13.37,0,0,1,18.9-.37L429,342.33l-25,22.2Z"/></svg>